<svg width="106" height="26" viewBox="0 0 106 26" fill="none" xmlns="http://www.w3.org/2000/svg">
<line x1="11.5" y1="2.5" x2="28.5" y2="2.5" stroke="white" stroke-width="3" stroke-linecap="round"/>
<line x1="1.5" y1="12.5" x2="28.5" y2="12.5" stroke="white" stroke-width="3" stroke-linecap="round"/>
<line x1="6.5" y1="22.5" x2="28.5" y2="22.5" stroke="white" stroke-width="3" stroke-linecap="round"/>
<path d="M64 23.8333C58.0169 23.8333 53.1666 18.983 53.1666 13C53.1666 7.01692 58.0169 2.16667 64 2.16667C69.983 2.16667 74.8333 7.01692 74.8333 13C74.8333 18.983 69.983 23.8333 64 23.8333ZM61.5191 21.3064C60.4763 19.0947 59.8371 16.6554 59.6962 14.0833H55.4003C55.8295 17.5245 58.276 20.3393 61.5191 21.3064ZM61.8666 14.0833C62.0295 16.7254 62.7842 19.2072 64 21.398C65.2157 19.2072 65.9704 16.7254 66.1334 14.0833H61.8666ZM72.5996 14.0833H68.3037C68.1629 16.6554 67.5236 19.0947 66.4808 21.3064C69.7239 20.3393 72.1705 17.5245 72.5996 14.0833ZM55.4003 11.9167H59.6962C59.8371 9.34459 60.4763 6.90525 61.5191 4.69361C58.276 5.66078 55.8295 8.47546 55.4003 11.9167ZM61.8666 11.9167H66.1334C65.9704 9.27466 65.2157 6.79278 64 4.60199C62.7842 6.79278 62.0295 9.27466 61.8666 11.9167ZM66.4808 4.69361C67.5236 6.90525 68.1629 9.34459 68.3037 11.9167H72.5996C72.1705 8.47546 69.7239 5.66078 66.4808 4.69361Z" fill="white"/>
<path d="M91.0156 19.1875C87.6484 19.1875 85.5859 16.9922 85.5859 13.3281C85.5859 9.71875 87.6484 7.53125 90.9609 7.53125C93.125 7.53125 94.8203 8.54688 95.4531 9.92969C95.5859 10.2031 95.625 10.4297 95.625 10.6562C95.625 11.2578 95.2109 11.6719 94.5938 11.6719C94.0938 11.6719 93.7422 11.4609 93.4531 10.9844C92.8984 9.97656 92.0781 9.48438 90.9688 9.48438C89.1094 9.48438 87.9922 10.8984 87.9922 13.2969C87.9922 15.7422 89.1797 17.2344 91.0547 17.2344C92.5938 17.2344 93.6641 16.2891 93.7109 14.8906L93.7188 14.7109H92.0781C91.5156 14.7109 91.1328 14.3906 91.1328 13.8516C91.1328 13.3125 91.5078 12.9922 92.0781 12.9922H94.8359C95.5781 12.9922 96.0156 13.4453 96.0156 14.2188V14.3906C96.0156 17.2578 94.1953 19.1875 91.0156 19.1875ZM98.7578 19C98.0156 19 97.5781 18.5469 97.5781 17.7656V8.95312C97.5781 8.17969 98.0156 7.72656 98.7578 7.72656H104.117C104.766 7.72656 105.188 8.09375 105.188 8.70312C105.188 9.3125 104.758 9.67969 104.117 9.67969H99.9375V12.3906H103.914C104.5 12.3906 104.898 12.7344 104.898 13.2969C104.898 13.8594 104.508 14.2031 103.914 14.2031H99.9375V17.0469H104.117C104.758 17.0469 105.188 17.4141 105.188 18.0234C105.188 18.6328 104.766 19 104.117 19H98.7578Z" fill="white"/>
</svg>
