<svg width="26" height="26" viewBox="0 0 26 26" fill="none" xmlns="http://www.w3.org/2000/svg">
<path d="M13 23.8333C7.01687 23.8333 2.16663 18.983 2.16663 13C2.16663 7.01692 7.01687 2.16667 13 2.16667C18.983 2.16667 23.8333 7.01692 23.8333 13C23.8333 18.983 18.983 23.8333 13 23.8333ZM10.5191 21.3064C9.47634 19.0947 8.83706 16.6554 8.69621 14.0833H4.40034C4.82946 17.5245 7.27605 20.3393 10.5191 21.3064ZM10.8666 14.0833C11.0295 16.7254 11.7842 19.2072 13 21.398C14.2157 19.2072 14.9704 16.7254 15.1334 14.0833H10.8666ZM21.5996 14.0833H17.3037C17.1629 16.6554 16.5236 19.0947 15.4808 21.3064C18.7239 20.3393 21.1705 17.5245 21.5996 14.0833ZM4.40034 11.9167H8.69621C8.83706 9.34459 9.47634 6.90525 10.5191 4.69361C7.27605 5.66078 4.82946 8.47546 4.40034 11.9167ZM10.8666 11.9167H15.1334C14.9704 9.27466 14.2157 6.79278 13 4.60199C11.7842 6.79278 11.0295 9.27466 10.8666 11.9167ZM15.4808 4.69361C16.5236 6.90525 17.1629 9.34459 17.3037 11.9167H21.5996C21.1705 8.47546 18.7239 5.66078 15.4808 4.69361Z" fill="white"/>
</svg>
