<svg width="20" height="12" viewBox="0 0 20 12" fill="none" xmlns="http://www.w3.org/2000/svg">
<path d="M5.42969 11.6562C2.0625 11.6562 0 9.46094 0 5.79688C0 2.1875 2.0625 0 5.375 0C7.53906 0 9.23438 1.01562 9.86719 2.39844C10 2.67188 10.0391 2.89844 10.0391 3.125C10.0391 3.72656 9.625 4.14062 9.00781 4.14062C8.50781 4.14062 8.15625 3.92969 7.86719 3.45312C7.3125 2.44531 6.49219 1.95312 5.38281 1.95312C3.52344 1.95312 2.40625 3.36719 2.40625 5.76562C2.40625 8.21094 3.59375 9.70312 5.46875 9.70312C7.00781 9.70312 8.07812 8.75781 8.125 7.35938L8.13281 7.17969H6.49219C5.92969 7.17969 5.54688 6.85938 5.54688 6.32031C5.54688 5.78125 5.92188 5.46094 6.49219 5.46094H9.25C9.99219 5.46094 10.4297 5.91406 10.4297 6.6875V6.85938C10.4297 9.72656 8.60938 11.6562 5.42969 11.6562ZM13.1719 11.4688C12.4297 11.4688 11.9922 11.0156 11.9922 10.2344V1.42188C11.9922 0.648438 12.4297 0.195312 13.1719 0.195312H18.5312C19.1797 0.195312 19.6016 0.5625 19.6016 1.17188C19.6016 1.78125 19.1719 2.14844 18.5312 2.14844H14.3516V4.85938H18.3281C18.9141 4.85938 19.3125 5.20312 19.3125 5.76562C19.3125 6.32812 18.9219 6.67188 18.3281 6.67188H14.3516V9.51562H18.5312C19.1719 9.51562 19.6016 9.88281 19.6016 10.4922C19.6016 11.1016 19.1797 11.4688 18.5312 11.4688H13.1719Z" fill="white"/>
</svg>
