<svg width="21" height="20" viewBox="0 0 21 20" fill="none" xmlns="http://www.w3.org/2000/svg">
<path d="M11.4866 0C12.6589 0.00186 13.2529 0.00782003 13.7663 0.02249L13.9685 0.0288301C14.202 0.0368001 14.4324 0.0468 14.7102 0.0593C15.8187 0.10847 16.5748 0.2768 17.2389 0.5243C17.9254 0.77847 18.5053 1.1218 19.0843 1.67764C19.6624 2.23347 20.0201 2.7918 20.2858 3.4493C20.5426 4.08597 20.718 4.81264 20.7701 5.8768C20.7825 6.14347 20.7925 6.36467 20.8008 6.58891L20.8073 6.783C20.8225 7.27574 20.8295 7.84613 20.8317 8.97157L20.8325 9.71717C20.8326 9.80827 20.8326 9.90227 20.8326 9.99927L20.8325 10.2814L20.8319 11.0271C20.8299 12.1525 20.8238 12.7229 20.8085 13.2156L20.8018 13.4097C20.7936 13.634 20.7831 13.8552 20.7701 14.1218C20.7189 15.186 20.5426 15.9118 20.2858 16.5493C20.021 17.2085 19.6624 17.7652 19.0843 18.321C18.5053 18.876 17.9228 19.2193 17.2389 19.4743C16.5748 19.721 15.8187 19.8893 14.7102 19.9393C14.4324 19.9512 14.202 19.9609 13.9685 19.9687L13.7663 19.975C13.2529 19.9897 12.6589 19.9963 11.4866 19.9985L10.7098 19.9993C10.6149 19.9993 10.517 19.9993 10.416 19.9993H10.1221L9.34533 19.9986C8.17304 19.9968 7.5789 19.9908 7.06562 19.9761L6.86345 19.9698C6.62985 19.9618 6.39944 19.9518 6.12167 19.9393C5.01316 19.8902 4.25795 19.721 3.59302 19.4743C2.90725 19.2202 2.32652 18.876 1.74753 18.321C1.16854 17.7652 0.811771 17.206 0.546146 16.5493C0.288333 15.9118 0.113854 15.186 0.061771 14.1218C0.049396 13.8552 0.0393021 13.634 0.0311251 13.4097L0.024573 13.2156C0.00933343 12.7229 0.0023856 12.1525 0.000135601 11.0271L0 8.97157C0.0019375 7.84613 0.00813543 7.27574 0.0234167 6.783L0.0300313 6.58891C0.0383334 6.36467 0.0487502 6.14347 0.061771 5.8768C0.112979 4.8118 0.288333 4.0868 0.546146 3.4493C0.810896 2.79097 1.16854 2.23347 1.74753 1.67764C2.32652 1.1218 2.90813 0.7793 3.59302 0.5243C4.25708 0.2768 5.01229 0.1093 6.12167 0.0593C6.39944 0.04743 6.62985 0.0377401 6.86345 0.0298901L7.06562 0.0235999C7.5789 0.00895986 8.17304 0.00228994 9.34533 0.000129938L11.4866 0ZM10.416 4.9993C7.53792 4.9993 5.2076 7.23883 5.2076 9.99927C5.2076 12.7622 7.54045 14.9993 10.416 14.9993C13.294 14.9993 15.6243 12.7598 15.6243 9.99927C15.6243 7.2364 13.2914 4.9993 10.416 4.9993ZM10.416 6.9993C12.1419 6.9993 13.541 8.34197 13.541 9.99927C13.541 11.6562 12.1423 12.9993 10.416 12.9993C8.69002 12.9993 7.29094 11.6567 7.29094 9.99927C7.29094 8.34237 8.6895 6.9993 10.416 6.9993ZM15.8847 3.4993C15.1667 3.4993 14.5826 4.05921 14.5826 4.74845C14.5826 5.4377 15.1659 5.99847 15.8847 5.99847C16.6026 5.99847 17.1868 5.43857 17.1868 4.74845C17.1868 4.05921 16.6017 3.49844 15.8847 3.4993Z" fill="white"/>
</svg>
