<svg width="213" height="55" viewBox="0 0 213 55" fill="none" xmlns="http://www.w3.org/2000/svg">
<path d="M156.23 37.0556L155.095 37.443C154.813 37.5398 154.243 37.4817 153.985 37.5931C153.644 37.7335 153.328 37.9272 152.982 37.8643C152.505 37.7771 152.145 38.1354 151.755 38.1451L147.753 38.2613C146.39 38.3 145.592 38.3678 144.165 38.2468C143.396 38.1838 142.544 38.2903 141.809 38.1402C141.346 38.0434 140.961 37.8158 140.465 37.8594C139.968 37.903 139.511 37.6948 139.038 37.5786L137.748 37.2542C135.771 36.7554 132.782 35.1189 131.015 33.8599C128.254 31.5455 126.248 29.0906 125.109 25.6189L124.759 24.5488C124.549 23.9145 124.496 23.3432 124.423 22.6556C124.364 22.1085 124.116 21.4984 124.121 20.927L124.14 16.9808C124.14 16.6225 124.384 16.1286 124.418 15.8091C125.104 9.5968 129.997 3.65569 135.927 1.57848C136.219 1.4768 136.438 1.38965 136.701 1.24923L137.602 0.958711C138.035 0.818294 138.444 0.73598 138.921 0.634299C139.292 0.556827 139.812 0.251783 140.202 0.363148C140.874 0.556827 141.341 0.0726296 141.916 0.0581037C144.701 -0.0193679 147.451 -0.0193679 150.241 0.0581037C150.811 0.0726296 151.273 0.566511 151.95 0.363148C152.335 0.246941 152.861 0.556827 153.226 0.634299C154.511 0.910291 154.774 0.978079 155.918 1.44775C156.147 1.54459 157.048 1.73827 157.934 2.1111C158.942 2.5372 159.682 2.94876 160.577 3.5879L161.731 4.4062C162.944 5.26807 164.141 6.37688 164.984 7.57285C166.06 9.09323 167.106 10.6281 167.666 12.4197L167.944 13.3106C168.061 13.6883 168.221 14.1821 168.289 14.5356L168.689 16.637C168.883 17.6538 168.888 21.1546 168.689 22.2925L168.289 24.6166C168.236 24.9265 167.749 26.3839 167.598 26.7664C166.989 28.2771 166.186 29.6038 165.212 30.916C164.346 32.0781 163.26 33.061 162.106 33.9277C161.653 34.2667 161.23 34.6395 160.762 34.9058C159.871 35.4191 159.01 35.8887 158.08 36.2955L157.257 36.6538C156.955 36.7845 156.575 36.9394 156.23 37.0556ZM150.976 31.3131C151.225 31.2356 151.765 31.2937 151.989 31.2065L153.002 30.8095L153.893 30.4609C154.204 30.3398 155.49 29.5118 155.85 29.2359C157.296 28.1416 158.343 26.8149 159.122 25.1783C159.204 25.0088 159.784 23.4303 159.828 23.2221L160.183 21.6049C160.5 20.162 160.422 18.6077 160.11 17.2181L159.745 15.5718C159.458 14.2838 158.854 13.1944 158.128 12.0856C157.622 11.3157 156.931 10.7201 156.273 10.0665C155.514 9.31112 154 8.41051 153.007 8.03284L151.911 7.61159C151.395 7.41306 150.86 7.38401 150.266 7.27749C149.827 7.20002 149.37 6.95308 148.878 6.95308L143.853 6.96276C143.542 6.96276 143.172 7.11286 142.948 7.24844C142.846 7.19033 142.734 7.09349 142.656 7.11286C142.578 7.13223 142.373 7.28717 142.291 7.29686C141.911 7.33075 141.278 7.39854 140.927 7.53411C139.467 8.10063 138.074 8.65745 136.93 9.73721C135.221 11.3496 134.35 12.4197 133.546 14.6663C133.386 15.107 133.323 15.6589 133.259 16.1093C133.23 16.332 132.957 16.7436 132.957 16.9518C132.982 18.6174 132.884 20.1523 133.03 21.7986C133.064 22.2101 133.332 22.8154 133.439 23.2173C133.853 24.7958 134.691 26.0353 135.591 27.3475C136.492 28.6597 137.802 29.4295 139.15 30.2527C139.754 30.6207 139.744 30.4657 140.961 30.9983C141.57 31.2646 142.953 31.56 143.693 31.6714C148.571 32.4122 147.69 31.4922 149.214 31.6036C149.832 31.6472 150.309 31.5019 150.962 31.3034L150.976 31.3131Z" fill="white"/>
<path d="M102.236 15.596L118.57 15.5863C118.824 15.5863 119.51 15.3733 119.515 15.8478L119.525 33.6759C119.077 34.3683 118.424 34.7654 117.714 35.1189L115.995 35.9759C115.82 36.063 113.127 36.9685 112.733 37.0799L111.433 37.443L110.26 37.5883C109.894 37.6318 109.408 37.9901 109.072 37.8788C108.375 37.6512 107.937 38.1838 107.382 38.1838L98.638 38.2129C98.268 38.2129 97.786 37.9417 97.4501 37.9175C96.1014 37.8061 95.1569 37.6318 93.9008 37.2687L92.523 36.8668C92.187 36.77 91.89 36.5714 91.5736 36.4407L90.7508 36.1018C89.3729 35.5353 88.1558 34.6976 86.9824 33.7921L86.3641 33.3176C85.8529 32.9206 85.2638 32.4606 84.8597 31.9522L83.3601 30.0638C83.0972 29.7297 82.0407 27.8607 81.8362 27.3426L81.286 25.9627C80.9793 25.188 80.7505 24.2341 80.5947 23.3771C80.5314 23.0236 80.322 22.5733 80.3172 22.2101L80.2782 18.8304V17.7749L80.3172 16.0173C80.3269 15.6638 80.5411 15.2038 80.5947 14.8552C80.6872 14.2645 80.7554 13.7609 80.9501 13.2138L81.2909 12.2647C82.2452 9.61616 83.8129 7.36949 85.8918 5.46175C87.6738 3.83 89.5677 2.46941 91.8998 1.77701L93.0098 1.44775L94.3049 1.0265C96.1842 0.416411 96.2719 0.886082 97.5621 0.673035C98.2631 0.556828 98.8571 0.426095 99.5826 0.358307L117.305 0.367991V6.94824L108.4 6.97729C107.114 6.96276 105.892 6.96276 104.597 7.03055C102.596 7.13223 101.881 6.88529 100.142 7.02571C99.8503 7.04992 99.568 7.22907 99.2758 7.25328L97.2359 7.42759C97.2018 7.42759 95.1813 8.01347 94.8259 8.16841C92.4889 9.20944 90.8092 11.1123 89.7868 13.3977C89.2123 14.6906 89.2512 15.3636 89.1392 15.8139L88.8276 17.0922C88.4966 18.4479 88.5939 19.9489 88.8763 21.3483L89.2463 23.1785C89.3681 23.7693 90.113 25.2606 90.4489 25.89C90.9455 26.81 92.1529 28.3643 93.1121 28.9599L94.1199 29.5893L95.2835 30.2962C96.2962 30.9112 95.1959 30.2091 96.9729 30.7901L98.2242 31.1968C98.5699 31.3082 99.1395 31.2211 99.5387 31.2888C99.899 31.3518 100.371 31.6036 100.727 31.6036L105.844 31.589L107.129 31.2695C107.791 31.1049 108.409 31.1436 109.038 30.9693L110.245 30.6352C110.459 30.5771 110.868 30.5383 111.107 30.5044C111.394 30.2914 111.623 30.151 112.066 30.0154L112.076 22.5346C112.076 22.2392 111.779 22.0213 111.521 22.0939C111.185 22.1859 110.858 22.0697 110.532 22.0697L102.825 22.0504C102.47 22.0504 102.114 21.9535 101.803 21.8083V15.9156C101.803 15.809 102.032 15.5815 102.226 15.5815L102.236 15.596Z" fill="white"/>
<path d="M198.943 30.7417L197.229 28.7274C196.849 28.282 196.513 27.8171 196.143 27.3765L194.756 25.7206L193.246 23.8661L192.126 22.5345C191.927 22.2925 191.649 22.031 191.469 21.7986C190.384 20.3847 189.838 19.8279 188.733 18.4625L187.063 16.4095L185.739 14.8116L182.063 10.478C181.737 11.4513 182.039 12.3083 182.039 13.2525L182.073 30.3059L182.141 31.7053C182.17 32.2718 182.131 32.7947 182.097 33.3661C182.029 34.5184 182.043 35.6563 182.082 36.8135C182.087 36.9636 182.121 37.1815 182.116 37.2881C182.112 37.3946 181.829 37.5253 181.698 37.5253L174.146 37.5011V0.731134C174.146 0.469667 174.497 0.363144 174.697 0.363144H182.482C183.197 1.11365 183.889 1.777 184.531 2.53719L186.781 5.17607L188.475 7.10317C189.049 7.75684 189.59 8.36209 190.164 9.02544L191.416 10.4635L194.03 13.4365L196.674 16.4869L198.563 18.6707L200.686 21.1013L201.25 21.7114C201.801 22.307 202.331 22.8638 202.857 23.4787C203.222 23.9048 203.539 24.2777 203.539 24.8829L203.519 34.0439C203.519 34.533 203.422 34.9591 203.539 35.4626C203.592 35.6902 203.441 36.0679 203.232 36.0291C202.852 35.5062 202.458 35.0075 202.063 34.5184L201.065 33.2886L198.943 30.7562V30.7417Z" fill="white"/>
<path d="M212.998 0.363144H204.503V37.5205H212.998V0.363144Z" fill="white"/>
<path d="M73.8175 21.8712C73.8175 22.1181 73.1359 22.1036 72.9898 21.9341H51.2024L51.1878 31.2646H75.3024C75.5751 33.0513 75.5215 34.746 75.4582 36.4794L75.429 37.2348C75.4144 37.3607 75.1466 37.5253 74.8935 37.5253L42.692 37.5156V0.832816C42.6871 0.537455 42.8673 0.387354 43.1545 0.363144H75.0054C75.171 0.363144 75.5459 0.493877 75.5799 0.624611C75.6578 0.924813 75.5215 1.52522 75.5215 1.85931L75.4777 6.8756C74.9178 7.19517 74.4553 6.97244 73.8856 6.97244L51.1927 6.96276L51.1781 14.8697C51.1781 15.107 51.3242 15.2667 51.5773 15.3345H72.7756C73.0774 15.3297 73.8175 15.0634 73.8175 15.596V21.8664V21.8712Z" fill="white"/>
<path d="M8.15841 37.4963H0.0179771L0.0228458 9.88731C0.0374518 9.34986 0.806704 9.63069 1.1183 9.63069L7.71536 9.64522C7.95393 9.66943 8.16328 9.87279 8.16328 10.1052V19.5422L21.9611 19.5083C22.0585 19.5083 25.0771 19.0144 25.3108 18.874C26.2504 18.2397 26.9174 17.9783 27.6478 16.9033C27.7938 16.6903 28.2855 15.5234 28.3488 15.2861C28.6653 14.095 28.7286 12.7053 28.3391 11.5675C27.9058 10.3183 27.1463 9.19491 26.0362 8.51704C25.5932 8.24589 25.0041 7.92632 24.5561 7.80527L23.2221 7.44696C22.8813 7.35496 22.3652 7.35012 21.9319 7.35012L0.485371 7.33075C0.19325 7.35496 0.00823975 7.11286 0.00823975 6.84171L0.0325832 0.367991L22.3117 0.358307C23.0176 0.358307 23.5775 0.551986 24.2105 0.639141C25.0235 0.750507 25.7733 0.750507 26.5523 1.01197C26.9467 1.14755 27.2631 1.33154 27.6526 1.42838L28.9574 1.74795C29.2739 1.82543 29.5173 1.961 29.7851 2.08205C31.4891 2.84708 32.8865 3.95105 34.1231 5.3407C34.8631 6.17352 35.5302 7.04992 35.9245 8.10547L36.3091 9.11744C37.093 11.1946 37.1027 13.3929 36.9615 15.6735C36.9275 16.2206 36.8788 16.6419 36.6256 17.1309L36.5088 17.9298L36.1826 18.69C35.4376 20.4235 34.9897 21.1643 33.5827 22.4668C32.1756 23.7693 29.9993 24.9846 28.2174 25.4349L26.8249 25.7884L25.082 26.1999L8.17302 26.2338L8.16328 37.4866L8.15841 37.4963Z" fill="white"/>
<path d="M28.232 37.4817C27.6477 36.8765 27.2436 36.247 26.7081 35.6224L25.2572 33.9519C25.0771 33.7437 24.9262 33.4823 24.7509 33.2692L23.1686 31.3566L21.7469 29.6232C21.2503 29.018 20.8121 28.4176 20.3739 27.73C21.8053 27.609 23.188 27.7929 24.5269 27.5993C24.7898 27.5605 25.155 27.2603 25.4812 27.2555C25.9242 27.2555 26.4744 27.2555 26.859 27.149C27.6672 26.9262 28.5095 26.5728 29.2934 27.178C29.5465 27.3717 29.8338 27.7978 30.0821 28.0786L32.5408 30.8434L34.795 33.4145C35.72 34.47 36.5769 35.5159 37.6529 36.4795C37.8915 36.6925 38.1008 37.0072 38.3637 37.3268C38.2712 37.3849 37.9791 37.5205 37.8671 37.5205L29.123 37.5302C28.8795 37.5302 28.4073 37.6706 28.232 37.4914V37.4817Z" fill="white"/>
<path d="M168.299 50.9037C166.975 51.6542 168.187 52.0367 166.303 53.6636C166.167 53.7798 165.763 53.9299 165.636 53.9735L164.828 53.683C164.287 53.4845 163.615 51.2136 163.275 51.6929L163.231 54.908C162.651 54.9419 162.121 54.9613 161.649 54.9225C161.108 54.8741 161.269 54.3318 161.269 54.0316V48.6909C161.269 48.5263 161.181 48.2309 161.147 47.9985L162.296 47.8484C163.046 47.7467 163.615 47.7758 164.015 48.5263C164.356 49.1654 164.764 49.8191 165.164 50.4582C165.3 50.681 165.3 51.2426 165.646 51.3153C165.86 51.3637 166.064 50.8504 166.181 50.6567C166.444 50.2307 166.731 49.7658 166.97 49.3397L167.72 47.984C167.91 47.8968 170.227 47.6838 170.227 48.0227L170.237 54.8063C169.57 55.0145 168.961 55.0145 168.299 54.8063V50.8988V50.9037Z" fill="white"/>
<path d="M154.448 52.2885L151.483 52.3272C151.278 52.6226 151.273 53.0584 151.351 53.4457C152.408 53.4506 153.386 53.4942 154.414 53.3828C154.681 53.3537 154.901 52.8066 155.314 53.0051C155.967 53.315 156.283 54.3706 155.743 54.9177L149.813 54.9516C149.501 54.9516 149.253 54.6998 149.253 54.3802V48.1244C149.263 47.6499 149.837 47.9114 150.061 47.8871L151.444 47.7274C151.858 47.6789 152.218 47.7274 152.627 47.7274L155.514 47.7758C155.641 48.168 155.738 48.6861 155.543 49.0686C155.407 49.3349 154.803 49.4366 154.506 49.4172L152.953 49.2962C152.461 49.2574 151.945 49.3349 151.4 49.3446C151.166 49.6303 151.366 50.434 151.906 50.4389L154.37 50.4631C154.662 50.4631 154.949 50.8214 154.847 51.1119L154.448 52.2885Z" fill="white"/>
<path d="M212.814 51.9689L212.784 52.5306C212.779 52.6516 212.478 52.7485 212.307 52.7485H189.687C189.351 52.7436 189.171 52.2255 189.166 52.0028C189.161 51.7801 189.351 51.2572 189.687 51.2572H212.302C212.453 51.2523 212.677 51.3007 212.721 51.3879C212.775 51.4944 212.814 51.7995 212.804 51.9738L212.814 51.9689Z" fill="white"/>
<path d="M88.4235 53.4845L89.665 53.4602C90.4489 53.4457 90.4635 53.0003 90.9309 53.1068C91.5054 53.2375 91.4567 54.3947 91.2474 54.7385C91.1159 54.9516 90.4879 54.9661 90.2298 54.9419C89.2512 54.8354 88.3748 54.8596 87.4157 54.9177C86.7146 54.9613 84.7331 55.184 84.7331 54.4044V47.9937C85.1031 47.921 85.5413 47.7951 85.8918 47.7903H90.444C91.0185 47.7854 91.3204 48.2454 91.2668 48.72C91.1987 49.2865 90.7556 49.4608 90.1909 49.4317C89.2025 49.3736 88.1363 49.3881 87.1236 49.422C86.9142 49.6641 86.924 50.0709 86.997 50.4389L90.1811 50.4776C90.2298 51.1313 90.2298 51.722 90.1763 52.3902C88.9591 52.303 87.8831 52.2449 86.7633 52.4483C86.6221 52.7727 86.6951 53.5183 87.0652 53.5135L88.4284 53.4893L88.4235 53.4845Z" fill="white"/>
<path d="M80.0543 52.5161C80.0397 53.0729 79.5284 53.3973 79.2022 53.7459C78.3113 54.7046 76.6218 54.9128 75.3706 54.8935L72.4153 54.8499C72.1865 54.2979 72.2936 53.7072 72.3131 53.0923C72.3569 51.659 72.352 50.2645 72.3131 48.8313C72.3033 48.4827 72.24 48.0663 72.4786 47.7806L76.3054 47.8048C76.1106 47.8048 78.2626 47.984 78.0971 48.2019C79.509 48.749 79.7816 49.4075 80.1127 50.6374C80.2831 51.2717 80.5217 51.8576 80.0494 52.5209L80.0543 52.5161ZM78.4671 51.0732C78.4135 49.7319 77.4447 49.6302 76.6608 49.1364L74.1972 49.146V53.3537C76.9821 53.3198 75.9694 53.6588 77.8001 52.7291C78.3843 52.4337 78.4914 51.7413 78.4671 51.078V51.0732Z" fill="white"/>
<path d="M110.493 53.62C110.006 54.5352 108.828 54.9613 108.234 54.9516C105.629 54.8983 106.355 55.1937 103.984 54.4625C103.507 54.3173 103.565 53.2327 104.062 53.0438C104.709 52.7969 105.401 53.1552 106.048 53.2811C106.778 53.4215 107.65 53.3489 108.419 53.3198C108.536 53.0777 108.341 52.6032 108.078 52.5257L105.907 51.8818C105.586 51.7849 105.279 51.6881 104.943 51.5719C103.994 51.2426 103.307 50.1096 103.828 49.1509C104.037 48.7684 104.588 48.2454 104.977 48.0566C106.506 47.3061 107.592 47.6935 109.003 47.892C109.622 47.9791 110.347 48.1341 110.342 48.9282L109.88 49.7464C109.5 50.0515 109.057 49.7126 108.706 49.606C108.078 49.4075 107.465 49.2816 106.793 49.1315C106.472 49.0589 106.141 49.2041 106.024 49.4898C105.917 49.7561 105.999 50.0467 106.277 50.2887C106.691 50.6519 106.803 50.1871 108.478 50.7439C108.833 50.8601 109.174 50.9763 109.5 51.1264C110.513 51.5864 111.019 52.6371 110.498 53.62H110.493Z" fill="white"/>
<path d="M179.741 54.9467C175.266 54.8983 177.632 54.7385 175.748 54.5545C175.5 54.5303 175.149 54.2543 174.911 54.0413L175.183 53.4409C175.261 53.2666 175.427 53.0293 175.568 52.9567C175.709 52.8841 176.074 52.9228 176.235 52.9664L177.433 53.3053C177.954 53.4506 178.679 53.3053 179.239 53.3828C179.672 53.4457 179.964 53.4409 180.412 53.3198L179.867 52.3853C179.166 52.4483 178.708 52.3466 178.124 52.1529C177.053 51.7995 176.605 51.7171 175.826 50.9521C175.047 50.1871 175.106 49.1848 175.709 48.6086C175.889 48.4343 176.328 48.0953 176.581 48.0276L177.783 47.708C178.319 47.5627 179.142 47.6305 179.702 47.6886C179.877 47.708 180.257 47.9259 180.417 47.9162C180.997 47.8823 181.683 48.1341 181.922 48.628L181.454 49.7852C181.196 50.1726 180.281 49.4608 179.366 49.3204L178.066 49.1267C177.856 49.2429 177.613 49.6835 177.559 50.0224L178.942 50.4001L180.14 50.7149C181.065 50.957 182.014 51.4266 182.155 52.5742C181.888 54.0752 181.985 54.2156 180.656 54.695C180.373 54.7966 180.013 54.9516 179.75 54.9467H179.741Z" fill="white"/>
<path d="M133.537 53.223C132.509 55.3196 131 54.9613 128.765 54.9419C128.395 54.9419 127.943 54.7385 127.592 54.6417C127.013 54.4819 126.618 54.2253 126.667 53.5329C126.789 51.8914 130.513 54.4577 131.448 52.918C131.034 52.6613 130.469 52.2352 130.022 52.1239L128.595 51.7752C128.021 51.6348 127.466 51.4654 127.134 51.0538C126.701 50.5163 126.594 49.9498 126.711 49.2768C126.872 48.3762 127.704 47.9888 128.507 47.8194C131.059 47.2819 130.581 47.9307 132.938 48.0082L133.001 48.7103C133.045 49.1896 132.699 50.0128 132.081 49.7755C131.687 49.6206 131.331 49.4995 130.888 49.4463C130.153 49.3591 129.437 49.1218 128.707 49.3349C128.449 49.4124 128.551 50.0128 128.775 50.0467C129.257 50.1144 129.569 50.2694 130.031 50.3517L131.102 50.5454L132.066 50.9231C132.461 51.078 132.904 51.4508 133.313 51.7607L133.532 53.2182L133.537 53.223Z" fill="white"/>
<path d="M38.8603 53.4603C38.7581 54.0316 38.6607 54.7579 38.0765 54.8983C37.7941 54.9661 36.3481 55.063 36.1728 54.7192C36.1241 54.6223 36.1874 54.4093 36.2459 54.2882L37.1806 52.4047L37.4533 51.7704L38.2225 50.1048L38.7678 48.9379C38.909 48.6376 39.0015 48.3956 39.1281 47.9937C40.4183 47.8 40.2041 47.7322 41.5673 47.9404C41.801 48.2987 41.9812 48.7684 42.1662 49.1654L43.6463 52.3369L44.4399 54.1091C44.5129 54.2689 44.6297 54.4964 44.6297 54.6272C44.6297 54.7579 44.323 54.9564 44.1721 54.9516L42.9014 54.9177C42.3804 54.9032 42.2197 53.6055 41.728 53.4457L38.8603 53.4554V53.4603ZM41.6355 52.3708C41.6063 51.6445 41.3969 51.0974 40.9685 50.7245L40.3356 50.1726L39.6978 51.3201C39.5127 51.6494 39.4348 51.9399 39.4154 52.3757H41.6306L41.6355 52.3708Z" fill="white"/>
<path d="M64.8299 53.4409L62.2933 53.4651C61.9866 53.7169 61.8357 54.3415 61.6555 54.6853C61.0664 55.0968 60.1219 55.0339 59.4549 54.7724C59.3234 54.3948 59.6301 53.9687 59.7908 53.6491C60.1998 52.8114 60.6039 52.027 60.9398 51.1894C61.0956 50.8068 61.2368 50.5405 61.4608 50.1677C61.8795 49.4705 62.2251 48.6861 62.566 47.9404L63.9292 47.8097C64.1775 47.7855 64.6741 47.9598 64.9029 48.0179L66.1931 50.8407C66.7043 51.9641 67.2107 53.0535 67.7754 54.143C67.8533 54.2979 68.0043 54.511 68.0043 54.6368C67.9897 55.1065 66.4463 54.9419 66.0471 54.9032C65.3022 54.8305 65.4628 53.4312 64.8348 53.436L64.8299 53.4409ZM64.8104 52.0658C64.7471 51.7607 64.4453 51.17 64.2846 50.9327L63.2914 50.4679C63.0869 50.1871 62.2398 52.211 62.4881 52.3611L63.9925 52.4434C64.2408 52.458 64.9273 52.6371 64.8104 52.0706V52.0658Z" fill="white"/>
<path d="M20.3447 52.7436H0.14456C-0.0599243 52.274 -0.0550556 51.7704 0.207853 51.2523H20.0916C20.5882 51.4605 20.6953 52.2595 20.3447 52.7436Z" fill="white"/>
<path d="M31.6595 50.6132C32.1805 50.6761 32.3655 52.1335 31.8494 52.2788C30.4521 52.6662 28.6312 51.9786 28.6215 52.8502L28.5971 54.7046C28.5971 55.0678 26.6302 55.0097 26.3137 54.7773L26.304 48.1147C26.377 47.9694 26.7178 47.7661 26.8785 47.7661L32.0003 47.7806C32.385 47.7806 32.5846 48.0857 32.6771 48.3907C33.3928 50.7778 28.7578 48.352 28.5192 49.9353C28.3732 50.8795 29.9506 50.4098 31.6547 50.6083L31.6595 50.6132Z" fill="white"/>
<path d="M54.3281 52.6613C55.0731 52.458 56.261 53.8476 55.8374 54.0607L55.4723 54.2398L54.5229 54.695C53.7439 55.0678 52.8529 55.0048 52.0107 54.9855C51.3144 54.971 50.7594 54.9177 50.1265 54.5884C48.6318 53.8137 47.8138 52.3757 48.2082 50.6616C48.4663 49.5479 49.3329 48.4972 50.3845 48.0324C50.7205 47.8823 51.2171 47.8242 51.5773 47.7177C52.2882 47.5143 52.9698 47.6983 53.705 47.8387C54.4401 47.9791 55.5015 48.1244 55.8034 48.9669C55.9786 49.4608 54.9952 50.2113 54.5521 49.9934L53.2911 49.3591C53.0964 49.2623 52.8286 49.1412 52.6436 49.0928C52.4829 49.0541 52.1859 49.301 52.0399 49.4172L50.6474 49.5189C50.0291 49.9159 49.7321 50.6325 49.7418 51.3104C49.7467 51.8334 50.107 52.7679 50.7205 52.9276L52.1665 53.2956C52.5316 53.3876 53.0866 53.3683 53.5053 53.3392L54.3233 52.6613H54.3281Z" fill="white"/>
<path d="M121.321 49.7658C120.601 50.9037 120.255 50.7633 119.51 52.2691C119.169 52.9615 119.827 54.0074 119.345 54.8886C118.658 54.9564 117.986 54.9516 117.266 54.8886C117.149 54.1188 117.329 53.3828 117.158 52.6613C116.978 51.9011 116.199 51.3443 115.829 50.6955C115.352 49.8578 114.851 49.117 114.232 48.4052C114.159 48.3229 114.062 48.1583 114.067 48.0711C114.072 47.984 114.315 47.892 114.422 47.8968L116.618 47.9404L118.049 50.3227C118.147 50.4873 118.507 50.4582 118.6 50.3227L120.274 47.9356C121.039 47.892 121.647 47.892 122.465 47.9743L121.326 49.7707L121.321 49.7658Z" fill="white"/>
<path d="M142.072 54.8402C141.536 54.9903 140.811 54.9758 140.158 54.8741L140.1 50.7875L139.978 49.5092L137.558 49.4753C137.179 49.3107 137.305 48.2116 137.373 48.0324C137.422 47.9017 137.753 47.7855 137.919 47.7855H144.525C144.929 48.1244 144.852 49.1461 144.452 49.3397L142.203 49.4898C142.037 49.8627 142.135 50.2888 142.159 50.6906C142.203 51.5332 142.218 52.3757 142.169 53.223L142.076 54.8451L142.072 54.8402Z" fill="white"/>
</svg>
