<svg width="134" height="26" viewBox="0 0 134 26" fill="none" xmlns="http://www.w3.org/2000/svg">
<path d="M127.341 24.0534C128.167 24.0534 128.903 24.0243 129.523 23.9643C130.141 23.9063 130.672 23.8462 131.114 23.7582V17.745C130.879 17.627 130.496 17.5089 129.965 17.3908C129.434 17.2736 128.727 17.2146 127.783 17.2146C127.253 17.2146 126.692 17.2436 126.133 17.3327C125.572 17.4198 125.042 17.5679 124.541 17.8331C124.069 18.0984 123.657 18.4236 123.362 18.865C123.067 19.3074 122.89 19.8969 122.89 20.6045C122.89 21.253 123.008 21.7835 123.214 22.2258C123.421 22.6672 123.716 23.0215 124.099 23.2867C124.482 23.552 124.954 23.7291 125.484 23.8762C126.095 24.0007 126.718 24.0601 127.341 24.0534ZM106.324 11.6439C106.118 11.4958 105.882 11.3186 105.587 11.1424C105.258 10.9463 104.913 10.7786 104.556 10.641C104.131 10.4879 103.698 10.3599 103.259 10.2577C102.783 10.1636 102.299 10.1143 101.814 10.1106C100.752 10.1106 99.8686 10.2867 99.161 10.6701C98.4534 11.0534 97.8639 11.5548 97.4216 12.1733C96.9802 12.7929 96.6559 13.5295 96.4788 14.3842C96.2726 15.2389 96.1835 16.1237 96.1835 17.0665C96.1835 19.3074 96.744 21.0168 97.8639 22.2258C98.9839 23.4339 100.458 24.0234 102.315 24.0234C103.377 24.0234 104.231 23.9653 104.88 23.8762C105.528 23.7882 106.029 23.6701 106.353 23.552V11.6429L106.324 11.6439ZM108.476 25.0553C107.827 25.2614 107.032 25.4976 106.029 25.6748C105.027 25.8809 103.789 25.969 102.286 25.969C101.048 25.969 99.8977 25.7628 98.8658 25.3495C97.8738 24.9566 96.9789 24.3532 96.2426 23.581C95.5059 22.8153 94.9455 21.8716 94.5331 20.7806C94.1208 19.6907 93.9136 18.4526 93.9136 17.0665C93.9136 15.7694 94.0907 14.5904 94.415 13.5004C94.7693 12.4095 95.2407 11.4657 95.9183 10.6701C96.5736 9.87683 97.4 9.24213 98.3354 8.81348C99.2791 8.37111 100.399 8.16493 101.608 8.16493C102.728 8.16493 103.701 8.31206 104.526 8.63634C105.351 8.96061 105.941 9.25585 106.324 9.55011V0.383321L108.476 0V25.0553ZM87.9305 15.6803C87.9015 13.9118 87.4591 12.5267 86.6915 11.5238C85.8958 10.522 84.7759 10.0506 83.3326 10.0506C82.565 10.0506 81.8874 10.1977 81.2689 10.522C80.6494 10.8162 80.1479 11.2286 79.6765 11.76C78.7503 12.8727 78.2214 14.2624 78.1733 15.7094H87.9305V15.6803ZM75.8443 17.0355C75.8443 15.5332 76.0505 14.2361 76.4928 13.1152C76.9352 11.9962 77.4957 11.0824 78.1733 10.3158C78.8321 9.59579 79.6357 9.02314 80.5313 8.63537C81.4025 8.28425 82.3332 8.10415 83.2726 8.10491C85.3654 8.10491 87.0167 8.7825 88.2548 10.1386C89.4928 11.4938 90.1114 13.6176 90.1114 16.447C90.1114 16.6241 90.1114 16.8003 90.0823 16.9774C90.0823 17.1546 90.0533 17.3317 90.0233 17.4789H78.0552C78.1142 19.5716 78.6456 21.163 79.6175 22.2829C80.5903 23.4039 82.1236 23.9634 84.2454 23.9634C85.3954 23.9634 86.3382 23.8453 87.0167 23.6391C87.6943 23.4329 88.1957 23.2267 88.49 23.0796L88.8733 24.9362C88.5791 25.1133 87.9896 25.3195 87.1348 25.5557C86.2791 25.7909 85.3063 25.909 84.1573 25.909C82.654 25.909 81.386 25.7028 80.3251 25.2605C79.2642 24.8181 78.4085 24.1996 77.7309 23.4039C77.0348 22.5822 76.5314 21.6151 76.2576 20.5735C75.9924 19.5416 75.8443 18.3326 75.8443 17.0355ZM116.288 25.9681H114.136V8.90156H116.288V25.97V25.9681ZM48.431 9.49107C49.0796 9.31489 49.9043 9.10774 50.9071 8.90156C51.939 8.69538 53.2651 8.57729 54.8855 8.57729C57.0383 8.57729 58.6007 9.1968 59.5735 10.4649C59.6906 10.3758 59.8978 10.2277 60.222 10.0215C60.5463 9.81534 60.9287 9.60916 61.4301 9.37297C62.6487 8.84389 63.9638 8.57297 65.2923 8.57729C66.5894 8.57729 67.6503 8.78347 68.446 9.16776C69.2417 9.55011 69.8612 10.0806 70.3026 10.7882C70.745 11.4948 71.0402 12.3214 71.1873 13.2943C71.3445 14.3381 71.4231 15.3923 71.4225 16.448V25.969H69.2717V17.1255C69.2717 16.0056 69.2126 15.0328 69.1236 14.2071C69.0355 13.3824 68.8293 12.7038 68.5341 12.1743C68.2519 11.6456 67.8074 11.2214 67.266 10.9643C66.7065 10.7001 65.9989 10.5529 65.1152 10.5529C64.4666 10.5529 63.8471 10.611 63.3167 10.7291C62.8323 10.8324 62.3585 10.9805 61.9015 11.1715C61.5191 11.3486 61.1949 11.5248 60.9296 11.7019C60.6634 11.8791 60.4873 11.9972 60.3982 12.0853C60.6054 12.6457 60.7525 13.2943 60.8406 14.0019C60.9296 14.7085 60.9877 15.4751 60.9877 16.2708V25.97H58.8359V17.1265C58.8359 16.0066 58.7778 15.0337 58.6888 14.208C58.6007 13.3833 58.3945 12.7048 58.0692 12.1753C57.7758 11.6449 57.3216 11.2213 56.7721 10.9653C56.2127 10.701 55.475 10.5539 54.5622 10.5539C53.5304 10.5539 52.6456 10.612 51.939 10.7301C51.2314 10.8482 50.76 10.9363 50.5829 11.0253V26H48.431V9.49107ZM33.1021 3.92033L38.0243 3.12465V8.22398H43.9193V12.3214H38.0243V18.4226C38.0243 19.4545 38.2014 20.2802 38.5547 20.8987C38.909 21.5182 39.6456 21.8125 40.7366 21.8125C41.267 21.8125 41.7975 21.7544 42.3579 21.6654C42.8814 21.5806 43.3949 21.4425 43.8902 21.253L44.5678 25.0843C43.9783 25.3205 43.3298 25.5267 42.5931 25.7038C41.8565 25.8809 40.9718 25.969 39.9118 25.969C38.5847 25.969 37.4648 25.7919 36.58 25.4386C35.7611 25.117 35.0325 24.601 34.4573 23.9353C33.9268 23.2867 33.5735 22.4911 33.3673 21.5773C33.1465 20.5705 33.0377 19.5424 33.043 18.5117V3.91936H33.1011L33.1021 3.92033ZM29.8003 12.969C29.284 12.8321 28.7629 12.7143 28.238 12.6157C27.6064 12.4942 26.9645 12.4349 26.3214 12.4386C26.0271 12.4386 25.6438 12.4676 25.2314 12.5276C24.7891 12.5857 24.4648 12.6457 24.2586 12.7038V25.97H19.3664V9.52107C20.2502 9.22584 21.283 8.9306 22.4911 8.63634C23.8083 8.35427 25.1524 8.21601 26.4995 8.22398C26.7647 8.22398 27.0899 8.25302 27.4433 8.28205C27.8266 8.31206 28.1799 8.37111 28.5632 8.40015C28.9465 8.4592 29.2998 8.51824 29.6832 8.6073C30.0665 8.69538 30.3608 8.78347 30.6269 8.90156L29.8013 12.97L29.8003 12.969ZM2.65227 12.94C2.95693 12.9392 3.24889 12.8178 3.46423 12.6023C3.67957 12.3867 3.80075 12.0947 3.80127 11.79C3.8005 11.4855 3.6792 11.1937 3.46389 10.9784C3.24857 10.7631 2.95677 10.6418 2.65227 10.641C2.34744 10.6415 2.05524 10.7629 1.83969 10.9784C1.62414 11.194 1.50282 11.4862 1.50231 11.791C1.47327 12.4095 2.00372 12.94 2.65227 12.94ZM7.36925 7.78161C8.81348 7.78161 10.0215 7.95875 10.9943 8.28302C11.9672 8.6073 12.7338 9.0787 13.3233 9.69724C13.9138 10.3168 14.3261 11.0534 14.5623 11.9381C14.7975 12.8219 14.9156 13.7947 14.9156 14.8856V25.969H7.42829C6.30834 25.969 5.30551 25.8809 4.39173 25.6738C3.47796 25.4676 2.68228 25.1433 2.03373 24.701C1.38518 24.2596 0.854728 23.6701 0.530454 22.9325C0.177141 22.1968 0 21.3111 0 20.2512C0 19.3664 0.147133 18.4526 0.619508 17.686C1.03187 16.9784 1.56232 16.4179 2.23991 16.0056C2.9175 15.5932 3.71415 15.299 4.56887 15.0918C5.47069 14.9034 6.38895 14.8048 7.3102 14.7975C7.95875 14.7975 8.51921 14.8266 9.01966 14.8847C9.52107 14.9447 9.90439 15.0037 10.2287 15.0918V14.6204C10.2287 13.7947 9.96344 13.1171 9.46202 12.6167C8.96061 12.1143 8.10685 11.8791 6.89687 11.8491V11.82C6.91494 11.0405 6.7148 10.2714 6.31901 9.59956C5.92323 8.92772 5.34756 8.37986 4.65696 8.0178L4.56887 7.98876C4.92219 7.92874 5.2755 7.8997 5.65979 7.86969C6.21928 7.81162 6.80879 7.78161 7.36925 7.78161ZM115.197 4.53887C115.501 4.53836 115.793 4.41717 116.009 4.20183C116.224 3.98649 116.346 3.69454 116.347 3.38987C116.346 3.08504 116.225 2.79284 116.009 2.57729C115.794 2.36174 115.501 2.24042 115.197 2.23991C114.892 2.24042 114.6 2.36174 114.384 2.57729C114.169 2.79284 114.047 3.08504 114.047 3.38987C114.047 4.03842 114.548 4.53887 115.197 4.53887ZM127.135 8.13492C128.255 8.13492 129.199 8.28302 129.994 8.6073C130.761 8.93157 131.409 9.37297 131.881 9.93343C132.352 10.4939 132.706 11.1715 132.942 11.9372C133.16 12.7548 133.269 13.5979 133.266 14.4442V25.2024C133.06 25.2614 132.736 25.3495 132.323 25.4086C131.91 25.4976 131.409 25.5567 130.879 25.6448C130.318 25.7328 129.729 25.7919 129.05 25.8509C128.373 25.91 127.695 25.939 126.988 25.939C126.074 25.939 125.248 25.8519 124.512 25.6448C123.745 25.4386 123.096 25.1433 122.537 24.7019C121.971 24.2631 121.517 23.6974 121.21 23.0506C120.885 22.373 120.738 21.5473 120.738 20.6045C120.738 19.6907 120.915 18.894 121.269 18.2165C121.622 17.5646 122.128 17.0082 122.743 16.5951C123.392 16.1527 124.128 15.8585 125.013 15.6523C125.897 15.4461 126.84 15.357 127.871 15.357C128.167 15.357 128.491 15.3861 128.844 15.4161C129.198 15.4451 129.523 15.5042 129.847 15.5342C130.171 15.5923 130.437 15.6523 130.672 15.7113C130.908 15.7694 131.055 15.8284 131.144 15.8585V14.7975C131.144 14.2071 131.114 13.6176 131.026 13.0581C130.937 12.4976 130.761 11.9972 130.437 11.5548C130.126 11.0892 129.699 10.7131 129.198 10.4639C128.668 10.1987 127.96 10.0515 127.076 10.0515C125.838 10.0515 124.895 10.1396 124.275 10.3168C123.657 10.4939 123.214 10.641 122.919 10.7591L122.625 8.87156C123.008 8.69538 123.568 8.51824 124.364 8.37111C125.101 8.22398 126.044 8.13492 127.135 8.13492Z" fill="white" fill-opacity="0.8"/>
</svg>
